<?xml version="1.0" encoding="UTF-8"?>
<svg id="ec-evergreen-line-logo" xmlns="http://www.w3.org/2000/svg" viewBox="0 0 569 100">
  <g id="grp-el-text-white">
    <polygon points="561.11 28.42 561.11 39.24 537.33 39.24 537.33 44.89 561.15 44.89 561.15 54.42 537.33 54.42 537.33 60.91 561.18 60.91 561.18 71.74 523.47 71.75 523.47 28.43 561.11 28.42" fill="#fff"/>
    <polygon points="518.36 28.29 504.52 28.29 504.52 52.15 491.51 28.31 477.66 28.31 477.66 71.62 491.52 71.62 491.52 47.77 504.52 71.62 518.36 71.62 518.36 28.29" fill="#fff"/>
    <rect x="458.51" y="28.32" width="13.87" height="43.31" fill="#fff"/>
    <polygon points="434.29 28.31 420.43 28.31 420.43 71.64 455.09 71.64 455.09 60.81 434.29 60.81 434.29 28.31" fill="#fff"/>
    <polygon points="43.94 28.28 43.94 39.11 20.15 39.11 20.15 44.75 43.98 44.75 43.98 54.28 20.15 54.28 20.15 60.78 44 60.78 44 71.61 6.29 71.61 6.29 28.3 43.94 28.28" fill="#fff"/>
    <polygon points="131.08 28.28 131.08 39.11 107.3 39.11 107.3 44.75 131.12 44.75 131.12 54.28 107.3 54.28 107.3 60.78 131.15 60.78 131.15 71.61 93.44 71.61 93.44 28.3 131.08 28.28" fill="#fff"/>
    <polygon points="304.53 28.28 304.53 39.11 280.74 39.11 280.74 44.75 304.56 44.75 304.56 54.28 280.74 54.28 280.74 60.78 304.59 60.78 304.59 71.61 266.88 71.61 266.88 28.3 304.53 28.28" fill="#fff"/>
    <polygon points="346.55 28.28 346.55 39.11 322.76 39.11 322.76 44.75 346.59 44.75 346.59 54.28 322.76 54.28 322.76 60.78 346.62 60.78 346.62 71.61 308.9 71.61 308.9 28.3 346.55 28.28" fill="#fff"/>
    <polygon points="90.71 28.28 75.98 28.28 68.62 56.88 61.26 28.28 46.54 28.28 60.83 71.6 76.43 71.6 90.71 28.28" fill="#fff"/>
    <path d="M170.9,51.27c2.05-.34,3.52-2.12,3.52-4.27v-13.12h0c0-.06,0-.13,0-.19,0-2.99-2.33-5.41-5.32-5.41h-33.68v43.3h13.9v.03s-.01-15.18-.01-15.18h6.93v.03c2.38,.02,4.3,1.95,4.3,4.33,0,.05,0,.1,0,.15h0v10.67h0s7.42,0,7.42,0h0s6.48,0,6.48,0v-4.29s0-.06,0-.09v-11.68c0-2.15-1.49-3.94-3.55-4.27Zm-21.59-12.17h2.21s.03,0,.05,0h6.92c1.19,0,2.07,.97,2.07,2.16v3.46c0,1.19-.87,2.16-2.07,2.16h-6.92s-.06,0-.08,0h-2.18v-7.78Z" fill="#fff"/>
    <path d="M258.92,51.27c2.05-.34,3.52-2.12,3.52-4.27v-13.12h0c0-.06,0-.13,0-.19,0-2.99-2.33-5.41-5.32-5.41h-33.68v43.3h13.9v.03s-.01-15.18-.01-15.18h6.93v.03c2.37,.02,4.3,1.95,4.3,4.33,0,.05,0,.1,0,.15h0v10.67h0s7.41,0,7.41,0h0s6.48,0,6.48,0v-4.29s0-.06,0-.09v-11.68c0-2.15-1.49-3.94-3.55-4.27Zm-21.6-12.17h2.21s.03,0,.05,0h6.92c1.2,0,2.07,.97,2.07,2.16v3.46c0,1.19-.87,2.16-2.07,2.16h-6.92s-.06,0-.08,0h-2.18v-7.78Z" fill="#fff"/>
    <path d="M219.04,42.14v-7.36c0-3.57-2.92-6.5-6.5-6.5h-27.28c-3.57,0-6.5,2.92-6.5,6.5v30.31c0,3.57,2.92,6.5,6.5,6.5h27.28c3.57,0,6.5-2.92,6.5-6.5v-18.62h-13.87v.02h-7.36v9.12h7.36v2.96c0,1.19-.97,2.17-2.17,2.17h-8.23c-1.19,0-2.17-.97-2.17-2.17v-17.32c0-1.19,.98-2.17,2.17-2.17h8.23c1.19,0,2.17,.97,2.17,2.17v.89h13.87Z" fill="#fff"/>
    <polygon points="391.72 28.25 377.88 28.25 377.88 52.12 364.87 28.27 351.02 28.27 351.02 71.58 364.88 71.58 364.88 47.73 377.88 71.58 391.72 71.58 391.72 28.25" fill="#fff"/>
  </g>
</svg>